<svg width="310px" height="141px" viewBox="0 0 310 141" version="1.1" xmlns="http://www.w3.org/2000/svg" xmlns:xlink="http://www.w3.org/1999/xlink">
    <title>Group 2</title>
    <desc>Created with Sketch.</desc>
    <defs>
        <path d="M0.035126763,35.8768973 C0.035126763,30.8548004 2.71062876,26.2125702 7.05739016,23.6926547 L44.6038479,1.92612768 C48.970019,-0.605039954 54.3572421,-0.609519086 58.7276214,1.91438494 L72.3151735,9.7612276 C72.5289791,9.8847008 72.7065729,10.0621457 72.830171,10.2757929 C73.2197858,10.9492673 72.9893416,11.8108802 72.3154597,12.2002594 L23.3563756,40.4895514 C22.9207165,40.7412816 22.6524059,41.2060558 22.6524059,41.7089846 L22.6524059,53.3847642 C22.6524059,53.6331112 22.5867064,53.8770439 22.4619669,54.0918346 C22.0712263,54.7646574 21.2087077,54.9935214 20.5354778,54.6030173 L11.7889234,49.5296154 C11.5740025,49.4049512 11.3299223,49.3392916 11.081425,49.3392916 C10.3030184,49.3392916 9.67199525,49.969933 9.67199525,50.7478684 L9.67199525,80.7721236 C9.67199525,81.2759219 9.9412265,81.7413614 10.3780739,81.992773 L21.9463271,88.6504591 C22.3831747,88.9018706 22.6524059,89.3673102 22.6524059,89.8711085 L22.6524059,98.0962516 C22.6524059,98.3447824 22.5866091,98.5888886 22.4616947,98.8037903 C22.0706954,99.4764629 21.2080888,99.7049958 20.5350092,99.3142329 L7.04975443,91.48524 C2.70729997,88.9641868 0.035126763,84.3243727 0.035126763,79.3054272 L0.035126763,35.8768973 Z M29.0366092,103.446852 L29.0366092,45.4181761 C29.0366092,44.9142676 29.3059571,44.4487439 29.742955,44.1973729 L50.928028,32.011242 C51.3651491,31.7598002 51.9033907,31.760954 52.3394286,32.0142671 L73.5314854,44.3256487 C73.9655335,44.5778062 74.2325983,45.0416767 74.2325983,45.5434268 L74.2325983,103.451863 C74.2325983,103.955049 73.9640163,104.420019 73.5280069,104.671656 L66.765583,108.574492 C66.0915025,108.963528 65.2294852,108.732784 64.8402138,108.059112 C64.7164647,107.844952 64.651315,107.602005 64.651315,107.3547 L64.651315,78.7692289 C64.651315,77.9912931 64.0202916,77.3606517 63.2418852,77.3606517 C62.9928121,77.3606517 62.7481876,77.4266159 62.5329195,77.5518278 L52.3730399,83.4613782 C51.9338756,83.7168203 51.3911284,83.7162418 50.9525109,83.4598633 L40.8578704,77.5594021 C40.1859484,77.1666543 39.3226704,77.3926401 38.9296848,78.0641553 C38.8034229,78.2799057 38.7368772,78.5253467 38.7368772,78.7752885 L38.7368772,107.369644 C38.7368772,108.14758 38.1058541,108.778221 37.3274474,108.778221 C37.0825389,108.778221 36.8418569,108.714443 36.6291225,108.593172 L29.7477138,104.670381 C29.3080377,104.41974 29.0366092,103.95272 29.0366092,103.446852 Z M103.269373,35.1204615 L103.269373,41.7685696 C103.269373,42.2681596 103.004583,42.7303714 102.573487,42.9832959 L91.044403,49.7474206 C90.6133065,50.0003454 90.3485175,50.4625569 90.3485175,50.9621469 L90.3485175,58.7916567 C90.3485175,59.5695925 90.9795405,60.2002339 91.757947,60.2002339 C92.0050445,60.2002339 92.2477995,60.1353113 92.4618718,60.011976 L101.156018,55.0029413 C101.83039,54.6144095 102.692234,54.8457979 103.081001,55.5197617 C103.204411,55.7337045 103.269373,55.9763127 103.269373,56.2232603 L103.269373,79.2914546 C103.269373,84.314306 100.593073,88.9571149 96.2452806,91.4767573 L82.8417747,99.2443861 C82.1683918,99.6346265 81.3059631,99.4054243 80.9154866,98.7324485 C80.7909252,98.5177709 80.7253245,98.2740155 80.7253245,98.0258557 L80.7253245,90.0999651 C80.7253245,89.596825 80.9938589,89.131889 81.4298072,88.8802357 L92.9215306,82.2465847 C93.3574789,81.9949314 93.626013,81.5299954 93.626013,81.026855 L93.626013,73.0698028 C93.626013,72.291867 92.99499,71.6612256 92.2165832,71.6612256 C91.96843,71.6612256 91.7246753,71.726704 91.5099624,71.8510411 L82.8413754,76.8708869 C82.1678643,77.2609069 81.3055108,77.0314221 80.9152548,76.3583186 C80.7908425,76.1437356 80.7253245,75.9001283 80.7253245,75.6521252 L80.7253245,41.7978635 C80.7253245,41.2958142 80.4579438,40.8317141 80.0234867,40.5796646 L60.0850562,29.0124192 C59.4118564,28.6218634 59.1829196,27.7598492 59.5737117,27.0870565 C59.6969478,26.8748917 59.873492,26.6985718 60.0858671,26.5755514 L80.0188927,15.0291465 C80.4558339,14.776044 80.9948823,14.7759284 81.4319319,15.0288438 L96.8143512,23.9304618 C100.809514,26.2424135 103.269373,30.5066631 103.269373,35.1204615 Z" id="path-1"></path>
    </defs>
    <g id="Page-1" stroke="none" stroke-width="1" fill="none" fill-rule="evenodd">
        <g id="Group-2">
            <g id="graphcms_logo_square">
                <path d="M74.6098392,2.83654244 L117.459496,27.5350003 C123.983891,31.2956489 128,38.225153 128,45.7218746 L128,95.278126 C128,102.774848 123.983891,109.704352 117.459496,113.465 L74.6098392,138.163458 C68.048303,141.945514 59.9516973,141.945514 53.390161,138.163458 L10.5405042,113.465 C4.01610874,109.704352 0,102.774848 0,95.278126 L0,45.7218746 C0,38.225153 4.01610874,31.2956489 10.5405042,27.5350003 L53.390161,2.83654244 C59.9516973,-0.945514146 68.048303,-0.945514146 74.6098392,2.83654244 Z" id="BG" fill="#D447A7" fill-rule="nonzero"></path>
                <path d="M56.8862214,10.1035002 L15.3216113,33.9551229 C10.9470769,36.4654253 8.25432078,41.0909971 8.25432078,46.0951974 L8.25432078,93.9048024 C8.25432078,98.9090027 10.9470769,103.534574 15.3216113,106.044877 L56.8862214,129.8965 C61.2856583,132.421092 66.714342,132.421092 71.1137789,129.8965 L112.678389,106.044877 C117.052923,103.534574 119.745679,98.9090027 119.745679,93.9048024 L119.745679,46.0951974 C119.745679,41.0909971 117.052923,36.4654253 112.678389,33.9551229 L71.1137789,10.1035002 C66.714342,7.57890755 61.285658,7.57890755 56.8862214,10.1035002 Z M114.812522,30.3131004 C120.499417,33.5764936 124,39.5897372 124,46.0951974 L124,93.9048024 C124,100.410263 120.499417,106.423506 114.812522,109.686899 L73.2479124,133.538522 C67.5286446,136.820493 60.4713557,136.820493 54.7520876,133.538522 L13.1874777,109.686899 C7.50058297,106.423506 4,100.410263 4,93.9048024 L4,46.0951974 C4,39.5897372 7.50058297,33.5764936 13.1874777,30.3131004 L54.7520876,6.46147783 C60.4713557,3.17950739 67.5286446,3.17950739 73.2479124,6.46147783 L114.812522,30.3131004 Z" id="Path" fill="#FFFFFF" fill-rule="nonzero"></path>
                <g id="Group-Clipped" transform="translate(12.000000, 12.000000)">
                    <g id="Group">
                        <g id="Group-Clipped">
                            <mask id="mask-2" fill="white">
                                <use xlink:href="#path-1"></use>
                            </mask>
                            <g id="path-1"></g>
                            <g id="Group" mask="url(#mask-2)">
                                <g transform="translate(-0.837720, -2.498486)">
                                    <g transform="translate(0.177872, 0.201594)">
                                        <g fill-rule="nonzero">
                                            <g transform="translate(0.035127, 0.056065)">
                                                <polygon id="Polygon-2-Copy" fill="#E6E6E6" points="110.906505 25.66951 110.906505 94.94923 51.0053677 129.58909 50.877624 60.1431924"></polygon>
                                                <polygon id="Polygon-2-Copy-2" fill="#D2D2D2" points="52.3973006 59.7465483 52.3973006 119.580965 0.700816834 89.6857236 0.700816834 29.8952411"></polygon>
                                                <polygon id="Polygon-2" fill="#FFFFFF" points="52.3973006 0 104.766751 30.2844069 52.2856186 60.5688139 0.027850157 30.2844069"></polygon>
                                            </g>
                                        </g>
                                    </g>
                                </g>
                            </g>
                        </g>
                    </g>
                </g>
            </g>
            <path d="M159.458722,73.158949 C158.486236,72.268166 158,70.9320113 158,69.1504451 L158,57.8323157 C158,56.0507495 158.486236,54.7145948 159.458722,53.8238116 C160.431208,52.9330286 161.827175,52.4876435 163.646665,52.4876435 L167.881664,52.4876435 L167.881664,54.8770265 L163.332961,54.8770265 C162.559155,54.8770265 161.931754,55.1075786 161.45074,55.5686899 C160.969725,56.0298012 160.729221,56.5852224 160.729221,57.23497 L160.729221,69.7477908 C160.729221,70.3975384 160.969725,70.9529596 161.45074,71.4140709 C161.931754,71.8751821 162.559155,72.1057343 163.332961,72.1057343 L166.219035,72.1057343 L166.219035,65.2834175 L163.583924,65.2834175 L163.583924,62.925474 L168.822774,62.925474 L168.822774,74.4951171 L163.646665,74.4951171 C161.827175,74.4951171 160.431208,74.0497322 159.458722,73.158949 Z M181.910705,65.3777352 L179.118743,65.3777352 L179.118743,74.4951171 L176.389522,74.4951171 L176.389522,52.4876435 L182.004816,52.4876435 C183.782479,52.4876435 185.126163,52.8806303 186.035908,53.6666155 C186.945653,54.4526005 187.400518,55.6944384 187.400518,57.3921663 L187.400518,60.4103342 C187.400518,62.7787694 186.459417,64.2563991 184.577186,64.8432681 L188.937666,74.4951171 L185.957482,74.4951171 L181.910705,65.3777352 Z M184.122316,55.3800544 C183.756326,55.0237412 183.17598,54.8455873 182.381261,54.8455873 L179.118743,54.8455873 L179.118743,63.0197916 L182.381261,63.0197916 C183.17598,63.0197916 183.756326,62.8363979 184.122316,62.4696048 C184.488305,62.1028118 184.671297,61.5211915 184.671297,60.7247266 L184.671297,57.1092131 C184.671297,56.3127482 184.488305,55.7363677 184.122316,55.3800544 Z M204.848929,74.4951171 L203.656856,68.9303704 L197.539635,68.9303704 L196.316191,74.4951171 L193.524229,74.4951171 L198.82582,52.4876435 L202.433411,52.4876435 L207.640891,74.4951171 L204.848929,74.4951171 Z M200.58256,54.5626339 L198.041561,66.5724266 L203.15493,66.5724266 L200.58256,54.5626339 Z M223.458043,64.7332307 C222.558755,65.5401754 221.230757,65.9436417 219.474008,65.9436417 L216.525194,65.9436417 L216.525194,74.4951171 L213.795972,74.4951171 L213.795972,52.4876435 L219.411267,52.4876435 C221.18893,52.4876435 222.532613,52.8806303 223.442358,53.6666155 C224.352103,54.4526005 224.806969,55.6944384 224.806969,57.3921663 L224.806969,60.9762405 C224.806969,62.6739684 224.357332,63.926286 223.458043,64.7332307 Z M221.528766,55.3800544 C221.162777,55.0237412 220.582431,54.8455873 219.787711,54.8455873 L216.525194,54.8455873 L216.525194,63.5856982 L219.787711,63.5856982 C220.582431,63.5856982 221.162777,63.4023044 221.528766,63.0355114 C221.894756,62.6687183 222.077748,62.087098 222.077748,61.2906331 L222.077748,57.1092131 C222.077748,56.3127482 221.894756,55.7363677 221.528766,55.3800544 Z M241.094676,74.4951171 L241.094676,64.3716794 L234.632383,64.3716794 L234.632383,74.4951171 L231.903162,74.4951171 L231.903162,52.4876435 L234.632383,52.4876435 L234.632383,62.0451749 L241.094676,62.0451749 L241.094676,52.4876435 L243.823899,52.4876435 L243.823899,74.4951171 L241.094676,74.4951171 Z M261.770217,74.9522084 C261.602907,74.9959234 258.225367,74.9911661 257.974403,74.9911661 C256.782324,74.9911661 255.747113,75.021309 254.868738,74.6934451 C253.990362,74.3655812 253.263623,73.7590421 252.688497,72.8738095 C252.113371,71.9885768 251.689876,70.76457 251.417998,69.201752 C251.14612,67.638934 251.167033,58.6336654 251.480738,57.1364201 C251.794444,55.6391749 252.264994,54.4971326 252.892405,53.7102594 C253.519816,52.923386 254.29361,52.4689666 255.213812,52.2176043 C256.134014,51.9662419 258.863229,51.9863372 259.197847,52.0191236 C260.634403,52.0159517 261.491861,52.0231794 261.770217,52.0408065 L261.770217,55.8138677 C261.260551,55.8138677 258.539072,55.8396008 257.974403,55.8396008 C257.514302,55.8396008 257.082942,55.9841954 256.798015,56.1501883 C256.513087,56.3161813 256.207208,56.5289906 255.99807,57.0535729 C255.788934,57.5781551 255.632083,58.2784687 255.527516,59.283918 C255.422946,60.2893674 255.417718,66.4203819 255.511831,67.4476887 C255.605941,68.4749958 255.752334,69.2080951 255.951015,69.7763927 C256.149695,70.3446901 256.416341,70.7217279 256.750959,70.9075175 C257.085578,71.0933071 257.521657,71.1862004 257.974403,71.1862004 C258.622727,71.1862004 261.382486,71.2119335 261.770217,71.2119335 L261.770217,74.9522084 Z M280.536182,74.955735 L280.536182,56.5840233 L277.838331,66.6040633 L274.575814,66.6040633 L271.752482,56.5840233 L271.752482,74.955735 L267.925298,74.955735 L267.925298,52.0053754 L274.450333,52.0053754 L276.301184,60.8248708 L278.183405,52.0053754 L284.426107,52.0053754 L284.426107,74.955735 L280.536182,74.955735 Z M302,68.1361995 C302,69.6662313 301.817009,70.8957024 301.451018,71.8246502 C301.08503,72.753598 300.58311,73.4694234 299.945241,73.9721481 C299.307375,74.4748728 298.544036,74.738041 297.655204,74.8910441 C296.766375,75.0440473 295.799132,74.9911661 294.753447,74.9911661 C294.418827,74.9911661 290.694357,74.979602 290.298856,74.9522084 L290.298856,71.3094105 C290.596874,71.3094105 294.126038,71.3164637 294.439744,71.3164637 C295.422686,71.3164637 296.201708,71.1033552 296.776834,70.6771322 C297.351962,70.2509091 297.639519,69.5132263 297.639519,68.4640618 C297.639519,67.8739068 297.582008,67.3711896 297.466983,66.9558954 C297.351958,66.540601 297.179422,66.2018134 296.949372,65.9395223 C296.719321,65.6772312 296.436992,65.4695872 296.102372,65.316584 C295.767753,65.1635809 295.391314,65.0433657 294.973038,64.9559354 C293.21629,64.5843563 291.966718,63.8739953 291.224281,62.8248306 C290.481845,61.7756661 290.110633,60.289372 290.110633,58.3659036 C290.110633,57.1418783 290.272712,56.1145867 290.596874,55.2839983 C290.921035,54.4534096 291.402043,53.7758344 292.039911,53.2512521 C292.677778,52.7266697 293.462029,52.4790136 294.392687,52.2495089 C295.323346,52.0200041 296.384741,52.0155295 297.576779,52.034635 C297.961835,52.0408065 301.235193,52.0053754 301.466703,52.0089021 L301.466703,55.6215714 C301.154124,55.6215714 297.534953,55.6446467 297.263075,55.6446467 C296.363788,55.6446467 295.673647,55.8304335 295.192631,56.2020127 C294.711618,56.5735916 294.471114,57.1746665 294.471114,58.0052552 C294.471114,58.5298373 294.507712,58.9615184 294.580909,59.3003112 C294.654107,59.6391039 294.784815,59.9123196 294.973038,60.1199669 C295.161263,60.3276141 295.412222,60.4970079 295.725928,60.6281534 C296.039633,60.7592989 296.447443,60.8795139 296.949372,60.9888018 C297.702263,61.141805 298.387177,61.3767706 299.004131,61.6937057 C299.621084,62.0106409 300.154375,62.442322 300.604018,62.9887617 C301.053664,63.5352017 301.398733,64.2237055 301.639241,65.0542942 C301.879749,65.8848826 302,66.9121742 302,68.1361995 Z" id="Combined-Shape" fill="#D447A7" fill-rule="nonzero"></path>
            <path d="M164.085938,107 L162.757812,107 L162.757812,96.7578125 L159.140625,96.7578125 L159.140625,95.578125 L167.703125,95.578125 L167.703125,96.7578125 L164.085938,96.7578125 L164.085938,107 Z M176.155381,107 L176.155381,101.460938 C176.155381,100.763017 175.996529,100.242189 175.678819,99.8984375 C175.361109,99.5546858 174.863718,99.3828125 174.186631,99.3828125 C173.285585,99.3828125 172.62804,99.6276017 172.213975,100.117188 C171.799911,100.606773 171.592881,101.408849 171.592881,102.523438 L171.592881,107 L170.296006,107 L170.296006,94.84375 L171.592881,94.84375 L171.592881,98.5234375 C171.592881,98.966148 171.572048,99.3333319 171.530381,99.625 L171.608506,99.625 C171.863716,99.2135396 172.226994,98.8893241 172.69835,98.6523438 C173.169707,98.4153634 173.707462,98.296875 174.311631,98.296875 C175.358512,98.296875 176.14366,98.5455704 176.6671,99.0429688 C177.19054,99.5403671 177.452256,100.330724 177.452256,101.414062 L177.452256,107 L176.155381,107 Z M184.80295,107.15625 C183.537319,107.15625 182.538631,106.770837 181.806857,106 C181.075082,105.229163 180.7092,104.158861 180.7092,102.789062 C180.7092,101.408847 181.049041,100.312504 181.728732,99.5 C182.408423,98.6874959 183.321174,98.28125 184.467013,98.28125 C185.539935,98.28125 186.388885,98.6341111 187.013888,99.3398438 C187.638891,100.045576 187.951388,100.976557 187.951388,102.132812 L187.951388,102.953125 L182.05295,102.953125 C182.078992,103.958338 182.332896,104.721352 182.814669,105.242188 C183.296442,105.763023 183.974821,106.023438 184.849825,106.023438 C185.771705,106.023438 186.683154,105.830731 187.5842,105.445312 L187.5842,106.601562 C187.125865,106.79948 186.692275,106.941406 186.283419,107.027344 C185.874563,107.113282 185.381078,107.15625 184.80295,107.15625 Z M184.451388,99.3671875 C183.763884,99.3671875 183.215713,99.5911436 182.806857,100.039062 C182.398,100.486981 182.157117,101.106767 182.0842,101.898438 L186.560763,101.898438 C186.560763,101.080725 186.378473,100.454429 186.013888,100.019531 C185.649303,99.5846332 185.128475,99.3671875 184.451388,99.3671875 Z M201.676213,101.015625 L205.559026,101.015625 L205.559026,106.570312 C204.954856,106.763022 204.340279,106.908854 203.715276,107.007812 C203.090273,107.106771 202.366322,107.15625 201.543401,107.15625 C199.814225,107.15625 198.467885,106.641932 197.504338,105.613281 C196.540792,104.58463 196.059026,103.143238 196.059026,101.289062 C196.059026,100.101557 196.297305,99.0612024 196.77387,98.1679688 C197.250434,97.2747351 197.936625,96.5924503 198.832463,96.1210938 C199.728301,95.6497372 200.77777,95.4140625 201.980901,95.4140625 C203.199657,95.4140625 204.335062,95.6380186 205.387151,96.0859375 L204.871526,97.2578125 C203.840271,96.8203103 202.848093,96.6015625 201.894963,96.6015625 C200.504331,96.6015625 199.418405,97.0156209 198.637151,97.84375 C197.855897,98.6718791 197.465276,99.8203052 197.465276,101.289062 C197.465276,102.830737 197.841574,103.999996 198.594182,104.796875 C199.34679,105.593754 200.452248,105.992188 201.910588,105.992188 C202.702259,105.992188 203.475689,105.901043 204.230901,105.71875 L204.230901,102.203125 L201.676213,102.203125 L201.676213,101.015625 Z M213.081595,98.28125 C213.461805,98.28125 213.802947,98.3124997 214.105032,98.375 L213.925345,99.578125 C213.571176,99.4999996 213.258679,99.4609375 212.987845,99.4609375 C212.295133,99.4609375 211.702691,99.7421847 211.210501,100.304688 C210.718311,100.86719 210.47222,101.567704 210.47222,102.40625 L210.47222,107 L209.175345,107 L209.175345,98.4375 L210.245657,98.4375 L210.394095,100.023438 L210.456595,100.023438 C210.774305,99.466143 211.157113,99.0364598 211.605032,98.734375 C212.052951,98.4322902 212.545134,98.28125 213.081595,98.28125 Z M221.721351,107 L221.463539,105.78125 L221.401039,105.78125 C220.973953,106.317711 220.548176,106.680989 220.123695,106.871094 C219.699214,107.061199 219.169271,107.15625 218.533851,107.15625 C217.684889,107.15625 217.019531,106.937502 216.537757,106.5 C216.055984,106.062498 215.815101,105.440108 215.815101,104.632812 C215.815101,102.903637 217.1979,101.997396 219.963539,101.914062 L221.416664,101.867188 L221.416664,101.335938 C221.416664,100.664059 221.272134,100.16797 220.98307,99.8476562 C220.694006,99.5273421 220.231771,99.3671875 219.596351,99.3671875 C218.882806,99.3671875 218.075522,99.5859353 217.174476,100.023438 L216.776039,99.03125 C217.197916,98.8020822 217.660151,98.6223965 218.162757,98.4921875 C218.665364,98.3619785 219.169265,98.296875 219.674476,98.296875 C220.695315,98.296875 221.451817,98.5234352 221.944007,98.9765625 C222.436197,99.4296898 222.682289,100.156245 222.682289,101.15625 L222.682289,107 L221.721351,107 Z M218.791664,106.085938 C219.598959,106.085938 220.233068,105.864586 220.694007,105.421875 C221.154947,104.979164 221.385414,104.359379 221.385414,103.5625 L221.385414,102.789062 L220.088539,102.84375 C219.057283,102.880209 218.313801,103.040363 217.85807,103.324219 C217.402338,103.608074 217.174476,104.049476 217.174476,104.648438 C217.174476,105.11719 217.316402,105.473957 217.600257,105.71875 C217.884113,105.963543 218.281244,106.085938 218.791664,106.085938 Z M230.407983,107.15625 C229.850688,107.15625 229.341579,107.053386 228.880639,106.847656 C228.419699,106.641926 228.032984,106.325523 227.720483,105.898438 L227.626733,105.898438 C227.689233,106.39844 227.720483,106.872394 227.720483,107.320312 L227.720483,110.84375 L226.423608,110.84375 L226.423608,98.4375 L227.478295,98.4375 L227.657983,99.609375 L227.720483,99.609375 C228.053818,99.1406227 228.441835,98.8020844 228.884545,98.59375 C229.327256,98.3854156 229.835063,98.28125 230.407983,98.28125 C231.543405,98.28125 232.419698,98.669267 233.036889,99.4453125 C233.654079,100.221358 233.96267,101.309889 233.96267,102.710938 C233.96267,104.117195 233.648871,105.209632 233.021264,105.988281 C232.393657,106.766931 231.522571,107.15625 230.407983,107.15625 Z M230.220483,99.3828125 C229.345478,99.3828125 228.712672,99.6249976 228.322045,100.109375 C227.931418,100.593752 227.730899,101.364578 227.720483,102.421875 L227.720483,102.710938 C227.720483,103.914069 227.921001,104.774737 228.322045,105.292969 C228.723089,105.811201 229.366311,106.070312 230.251733,106.070312 C230.99132,106.070312 231.570741,105.770836 231.990014,105.171875 C232.409287,104.572914 232.61892,103.747401 232.61892,102.695312 C232.61892,101.627599 232.409287,100.808597 231.990014,100.238281 C231.570741,99.6679659 230.980903,99.3828125 230.220483,99.3828125 Z M243.157114,107 L243.157114,101.460938 C243.157114,100.763017 242.998261,100.242189 242.680552,99.8984375 C242.362842,99.5546858 241.865451,99.3828125 241.188364,99.3828125 C240.287318,99.3828125 239.629772,99.6276017 239.215708,100.117188 C238.801643,100.606773 238.594614,101.408849 238.594614,102.523438 L238.594614,107 L237.297739,107 L237.297739,94.84375 L238.594614,94.84375 L238.594614,98.5234375 C238.594614,98.966148 238.573781,99.3333319 238.532114,99.625 L238.610239,99.625 C238.865449,99.2135396 239.228726,98.8893241 239.700083,98.6523438 C240.171439,98.4153634 240.709194,98.296875 241.313364,98.296875 C242.360244,98.296875 243.145393,98.5455704 243.668833,99.0429688 C244.192273,99.5403671 244.453989,100.330724 244.453989,101.414062 L244.453989,107 L243.157114,107 Z M258.29687,101.273438 C258.29687,102.736986 258.002603,103.95312 257.414058,104.921875 C256.825513,105.89063 255.994793,106.546873 254.92187,106.890625 L257.64062,109.71875 L255.710933,109.71875 L253.48437,107.140625 L253.054683,107.15625 C251.372383,107.15625 250.074219,106.641932 249.160152,105.613281 C248.246085,104.58463 247.789058,103.132822 247.789058,101.257812 C247.789058,99.3984282 248.247387,97.9570364 249.164058,96.9335938 C250.080729,95.9101511 251.3828,95.3984375 253.070308,95.3984375 C254.710941,95.3984375 255.992178,95.9192656 256.914058,96.9609375 C257.835938,98.0026094 258.29687,99.440095 258.29687,101.273438 Z M249.195308,101.273438 C249.195308,102.82032 249.524732,103.993486 250.183589,104.792969 C250.842447,105.592452 251.799468,105.992188 253.054683,105.992188 C254.320314,105.992188 255.276034,105.593754 255.92187,104.796875 C256.567707,103.999996 256.89062,102.825529 256.89062,101.273438 C256.89062,99.7369715 256.569009,98.5716186 255.925777,97.7773438 C255.282544,96.9830689 254.330731,96.5859375 253.070308,96.5859375 C251.804677,96.5859375 250.842447,96.9856731 250.183589,97.7851562 C249.524732,98.5846394 249.195308,99.7473882 249.195308,101.273438 Z M261.913189,107 L261.913189,95.578125 L263.241314,95.578125 L263.241314,105.796875 L268.280377,105.796875 L268.280377,107 L261.913189,107 Z M281.40364,96.6015625 C280.148425,96.6015625 279.15755,97.0195271 278.430984,97.8554688 C277.704417,98.6914104 277.34114,99.8359302 277.34114,101.289062 C277.34114,102.783862 277.691397,103.938798 278.391921,104.753906 C279.092445,105.569014 280.091133,105.976562 281.388015,105.976562 C282.184894,105.976562 283.093739,105.833335 284.114577,105.546875 L284.114577,106.710938 C283.322907,107.007814 282.346354,107.15625 281.18489,107.15625 C279.50259,107.15625 278.204426,106.645838 277.290359,105.625 C276.376291,104.604162 275.919265,103.153655 275.919265,101.273438 C275.919265,100.096348 276.139315,99.0651086 276.579421,98.1796875 C277.019527,97.2942664 277.654938,96.6119816 278.485671,96.1328125 C279.316404,95.6536434 280.294259,95.4140625 281.419265,95.4140625 C282.617187,95.4140625 283.664052,95.6328103 284.55989,96.0703125 L283.99739,97.2109375 C283.132802,96.8046855 282.268227,96.6015625 281.40364,96.6015625 Z M292.730896,107 L288.855896,96.875 L288.793396,96.875 C288.866313,97.6770873 288.902771,98.6302028 288.902771,99.734375 L288.902771,107 L287.676209,107 L287.676209,95.578125 L289.676209,95.578125 L293.293396,105 L293.355896,105 L297.004334,95.578125 L298.988709,95.578125 L298.988709,107 L297.660584,107 L297.660584,99.640625 C297.660584,98.7968708 297.697042,97.8802133 297.769959,96.890625 L297.707459,96.890625 L293.801209,107 L292.730896,107 Z M309.636278,103.960938 C309.636278,104.966151 309.271698,105.749997 308.542528,106.3125 C307.813357,106.875003 306.823784,107.15625 305.573778,107.15625 C304.219604,107.15625 303.177948,106.981773 302.448778,106.632812 L302.448778,105.351562 C302.91753,105.54948 303.427942,105.705729 303.980028,105.820312 C304.532114,105.934896 305.078983,105.992188 305.620653,105.992188 C306.506074,105.992188 307.172734,105.82422 307.620653,105.488281 C308.068572,105.152342 308.292528,104.684899 308.292528,104.085938 C308.292528,103.690102 308.213101,103.365887 308.054246,103.113281 C307.895391,102.860676 307.629769,102.627605 307.257371,102.414062 C306.884974,102.20052 306.318573,101.958335 305.558153,101.6875 C304.495647,101.30729 303.73654,100.856773 303.280809,100.335938 C302.825077,99.8151016 302.597215,99.1354209 302.597215,98.296875 C302.597215,97.4166623 302.927941,96.7161484 303.589403,96.1953125 C304.250864,95.6744766 305.125856,95.4140625 306.214403,95.4140625 C307.349825,95.4140625 308.394085,95.6223938 309.347215,96.0390625 L308.933153,97.1953125 C307.99044,96.7994772 307.073782,96.6015625 306.183153,96.6015625 C305.480024,96.6015625 304.93055,96.7526027 304.534715,97.0546875 C304.13888,97.3567723 303.940965,97.776039 303.940965,98.3125 C303.940965,98.7083353 304.013881,99.0325508 304.159715,99.2851562 C304.305549,99.5377617 304.551641,99.7695302 304.897996,99.9804688 C305.244352,100.191407 305.774295,100.424478 306.48784,100.679688 C307.685763,101.106773 308.509973,101.565102 308.960496,102.054688 C309.41102,102.544273 309.636278,103.179684 309.636278,103.960938 Z" id="The-GraphQL-CMS" fill="#D447A7"></path>
            <path d="M158.552491,29.2919922 L161.88501,29.2919922 C163.403573,29.2919922 164.505856,29.5080545 165.191895,29.9401855 C165.877934,30.3723166 166.220948,31.0595656 166.220948,32.0019531 C166.220948,32.6416048 166.070803,33.1665019 165.770508,33.5766602 C165.470214,33.9868185 165.071048,34.233398 164.572999,34.3164062 L164.572999,34.3896484 C165.251713,34.5410164 165.74121,34.8242167 166.041504,35.2392578 C166.341799,35.654299 166.491944,36.2060512 166.491944,36.8945312 C166.491944,37.8710986 166.139164,38.6328098 165.433594,39.1796875 C164.728024,39.7265652 163.769782,40 162.558838,40 L158.552491,40 L158.552491,29.2919922 Z M160.822999,33.5327148 L162.141358,33.5327148 C162.756595,33.5327148 163.202148,33.437501 163.478028,33.2470703 C163.753908,33.0566397 163.891846,32.7417014 163.891846,32.3022461 C163.891846,31.8920878 163.741701,31.5979013 163.441407,31.4196777 C163.141112,31.2414542 162.666264,31.1523438 162.016846,31.1523438 L160.822999,31.1523438 L160.822999,33.5327148 Z M160.822999,35.3344727 L160.822999,38.125 L162.302491,38.125 C162.927494,38.125 163.388915,38.0053723 163.686768,37.7661133 C163.984621,37.5268543 164.133545,37.160647 164.133545,36.6674805 C164.133545,35.7788042 163.498786,35.3344727 162.229249,35.3344727 L160.822999,35.3344727 Z M173.572022,31.6577148 C173.874758,31.6577148 174.12622,31.6796873 174.326416,31.7236328 L174.157959,33.8183594 C173.977294,33.769531 173.75757,33.7451172 173.49878,33.7451172 C172.785886,33.7451172 172.230471,33.9282208 171.83252,34.2944336 C171.434569,34.6606464 171.235596,35.1733365 171.235596,35.8325195 L171.235596,40 L169.001709,40 L169.001709,31.8115234 L170.693604,31.8115234 L171.023194,33.1884766 L171.133057,33.1884766 C171.386965,32.7294899 171.729979,32.3596205 172.16211,32.0788574 C172.594241,31.7980943 173.064207,31.6577148 173.572022,31.6577148 Z M177.8396,35.8911133 C177.8396,36.7016642 177.972655,37.314451 178.23877,37.7294922 C178.504885,38.1445333 178.93823,38.3520508 179.538819,38.3520508 C180.134525,38.3520508 180.562987,38.145754 180.824219,37.7331543 C181.085451,37.3205546 181.216065,36.706547 181.216065,35.8911133 C181.216065,35.0805624 181.08423,34.4726583 180.820557,34.0673828 C180.556884,33.6621073 180.124759,33.4594727 179.52417,33.4594727 C178.928464,33.4594727 178.498781,33.6608867 178.235108,34.0637207 C177.971435,34.4665547 177.8396,35.0756795 177.8396,35.8911133 Z M183.501221,35.8911133 C183.501221,37.2241278 183.149662,38.2665978 182.446534,39.0185547 C181.743405,39.7705116 180.764411,40.1464844 179.509522,40.1464844 C178.723385,40.1464844 178.030033,39.974367 177.429444,39.630127 C176.828855,39.285887 176.367434,38.7915071 176.045166,38.1469727 C175.722899,37.5024382 175.561768,36.7504926 175.561768,35.8911133 C175.561768,34.553216 175.910886,33.5131873 176.609131,32.7709961 C177.307377,32.0288049 178.288812,31.6577148 179.553467,31.6577148 C180.339604,31.6577148 181.032956,31.8286116 181.633545,32.1704102 C182.234134,32.5122087 182.695555,33.0029265 183.017823,33.6425781 C183.34009,34.2822298 183.501221,35.031734 183.501221,35.8911133 Z M191.69458,40 L191.394287,38.9526367 L191.2771,38.9526367 C191.037841,39.333498 190.698489,39.6276845 190.259034,39.8352051 C189.819578,40.0427256 189.319095,40.1464844 188.757569,40.1464844 C187.79565,40.1464844 187.070559,39.8889186 186.582276,39.3737793 C186.093992,38.85864 185.849854,38.1176806 185.849854,37.1508789 L185.849854,31.8115234 L188.083741,31.8115234 L188.083741,36.5942383 C188.083741,37.1850615 188.18872,37.6281724 188.398682,37.923584 C188.608644,38.2189956 188.943113,38.3666992 189.4021,38.3666992 C190.027103,38.3666992 190.478759,38.1579611 190.75708,37.7404785 C191.035402,37.322996 191.174561,36.6308642 191.174561,35.6640625 L191.174561,31.8115234 L193.408448,31.8115234 L193.408448,40 L191.69458,40 Z M203.425537,31.8115234 L203.425537,32.9467773 L202.143799,33.2763672 C202.378175,33.64258 202.495362,34.0527321 202.495362,34.5068359 C202.495362,35.3857466 202.188968,36.0705542 201.576172,36.5612793 C200.963376,37.0520044 200.112555,37.2973633 199.023682,37.2973633 L198.62085,37.2753906 L198.29126,37.2387695 C198.061767,37.4145517 197.947022,37.6098622 197.947022,37.824707 C197.947022,38.1469743 198.357174,38.3081055 199.177491,38.3081055 L200.569092,38.3081055 C201.467534,38.3081055 202.152342,38.5009746 202.623535,38.8867188 C203.094729,39.2724629 203.330323,39.8388635 203.330323,40.5859375 C203.330323,41.5429735 202.931157,42.2851536 202.132813,42.8125 C201.334469,43.3398464 200.18824,43.6035156 198.694092,43.6035156 C197.551508,43.6035156 196.678714,43.404543 196.075684,43.0065918 C195.472654,42.6086406 195.171143,42.0507848 195.171143,41.3330078 C195.171143,40.8398413 195.32495,40.4272478 195.632569,40.0952148 C195.940187,39.7631819 196.391843,39.5263679 196.987549,39.3847656 C196.758056,39.2871089 196.557862,39.1271984 196.386963,38.9050293 C196.216064,38.6828602 196.130616,38.4472669 196.130616,38.1982422 C196.130616,37.8857406 196.220947,37.6257335 196.401612,37.4182129 C196.582277,37.2106923 196.843504,37.0068369 197.185303,36.8066406 C196.755613,36.6210928 196.415041,36.3232442 196.163575,35.9130859 C195.912108,35.5029276 195.786377,35.019534 195.786377,34.4628906 C195.786377,33.5693315 196.076902,32.8784204 196.657959,32.3901367 C197.239017,31.901853 198.069087,31.6577148 199.148194,31.6577148 C199.377687,31.6577148 199.649901,31.6784666 199.964844,31.7199707 C200.279787,31.7614748 200.481201,31.7919921 200.569092,31.8115234 L203.425537,31.8115234 Z M197.104737,41.1572266 C197.104737,41.4648453 197.25244,41.7065421 197.547852,41.8823242 C197.843263,42.0581063 198.257078,42.1459961 198.789307,42.1459961 C199.590092,42.1459961 200.217527,42.0361339 200.671631,41.8164062 C201.125735,41.5966786 201.352784,41.2963886 201.352784,40.9155273 C201.352784,40.6079086 201.218508,40.3955084 200.949951,40.2783203 C200.681395,40.1611322 200.266361,40.1025391 199.704834,40.1025391 L198.547608,40.1025391 C198.137449,40.1025391 197.794435,40.1989736 197.518555,40.3918457 C197.242675,40.5847178 197.104737,40.8398422 197.104737,41.1572266 Z M197.917725,34.4921875 C197.917725,34.9365257 198.019042,35.2880846 198.22168,35.546875 C198.424318,35.8056654 198.733153,35.9350586 199.148194,35.9350586 C199.568118,35.9350586 199.875732,35.8056654 200.071045,35.546875 C200.266359,35.2880846 200.364014,34.9365257 200.364014,34.4921875 C200.364014,33.5058544 199.958745,33.0126953 199.148194,33.0126953 C198.327877,33.0126953 197.917725,33.5058544 197.917725,34.4921875 Z M212.878662,40 L210.644776,40 L210.644776,35.2172852 C210.644776,34.0356386 210.205327,33.4448242 209.326416,33.4448242 C208.701413,33.4448242 208.249757,33.6572244 207.971436,34.0820312 C207.693114,34.5068381 207.553955,35.1953077 207.553955,36.1474609 L207.553955,40 L205.320069,40 L205.320069,28.6035156 L207.553955,28.6035156 L207.553955,30.925293 C207.553955,31.1059579 207.536866,31.5307584 207.502686,32.199707 L207.451416,32.8588867 L207.568604,32.8588867 C208.066653,32.0581015 208.857661,31.6577148 209.941651,31.6577148 C210.90357,31.6577148 211.633543,31.9165013 212.131592,32.434082 C212.629641,32.9516627 212.878662,33.6938428 212.878662,34.6606445 L212.878662,40 Z M219.175049,38.3666992 C219.565676,38.3666992 220.034421,38.2812509 220.581299,38.1103516 L220.581299,39.7729492 C220.024656,40.0219739 219.341069,40.1464844 218.530518,40.1464844 C217.636959,40.1464844 216.98633,39.9206566 216.578613,39.4689941 C216.170897,39.0173317 215.967041,38.3398483 215.967041,37.4365234 L215.967041,33.4887695 L214.897705,33.4887695 L214.897705,32.5439453 L216.128174,31.796875 L216.772705,30.0683594 L218.200928,30.0683594 L218.200928,31.8115234 L220.493408,31.8115234 L220.493408,33.4887695 L218.200928,33.4887695 L218.200928,37.4365234 C218.200928,37.7539078 218.290038,37.9882805 218.468262,38.1396484 C218.646485,38.2910164 218.882079,38.3666992 219.175049,38.3666992 Z M230.676514,38.3666992 C231.067141,38.3666992 231.535886,38.2812509 232.082764,38.1103516 L232.082764,39.7729492 C231.52612,40.0219739 230.842533,40.1464844 230.031982,40.1464844 C229.138423,40.1464844 228.487795,39.9206566 228.080078,39.4689941 C227.672361,39.0173317 227.468506,38.3398483 227.468506,37.4365234 L227.468506,33.4887695 L226.39917,33.4887695 L226.39917,32.5439453 L227.629639,31.796875 L228.27417,30.0683594 L229.702393,30.0683594 L229.702393,31.8115234 L231.994873,31.8115234 L231.994873,33.4887695 L229.702393,33.4887695 L229.702393,37.4365234 C229.702393,37.7539078 229.791503,37.9882805 229.969727,38.1396484 C230.14795,38.2910164 230.383544,38.3666992 230.676514,38.3666992 Z M236.064697,35.8911133 C236.064697,36.7016642 236.197753,37.314451 236.463867,37.7294922 C236.729982,38.1445333 237.163327,38.3520508 237.763916,38.3520508 C238.359622,38.3520508 238.788085,38.145754 239.049316,37.7331543 C239.310548,37.3205546 239.441162,36.706547 239.441162,35.8911133 C239.441162,35.0805624 239.309327,34.4726583 239.045654,34.0673828 C238.781981,33.6621073 238.349857,33.4594727 237.749268,33.4594727 C237.153561,33.4594727 236.723878,33.6608867 236.460205,34.0637207 C236.196532,34.4665547 236.064697,35.0756795 236.064697,35.8911133 Z M241.726318,35.8911133 C241.726318,37.2241278 241.374759,38.2665978 240.671631,39.0185547 C239.968502,39.7705116 238.989508,40.1464844 237.734619,40.1464844 C236.948482,40.1464844 236.25513,39.974367 235.654541,39.630127 C235.053952,39.285887 234.592531,38.7915071 234.270264,38.1469727 C233.947996,37.5024382 233.786865,36.7504926 233.786865,35.8911133 C233.786865,34.553216 234.135983,33.5131873 234.834229,32.7709961 C235.532474,32.0288049 236.51391,31.6577148 237.778564,31.6577148 C238.564701,31.6577148 239.258054,31.8286116 239.858643,32.1704102 C240.459232,32.5122087 240.920653,33.0029265 241.24292,33.6425781 C241.565187,34.2822298 241.726318,35.031734 241.726318,35.8911133 Z M247.390381,31.8115234 L249.83667,31.8115234 L251.38208,36.418457 C251.513917,36.8188497 251.604248,37.2924777 251.653076,37.8393555 L251.697021,37.8393555 C251.750733,37.3364233 251.855712,36.8627952 252.011963,36.418457 L253.528076,31.8115234 L255.923096,31.8115234 L252.45874,41.0473633 C252.141356,41.9018597 251.688479,42.5415018 251.100098,42.9663086 C250.511716,43.3911154 249.824467,43.6035156 249.03833,43.6035156 C248.652586,43.6035156 248.274172,43.5620121 247.903076,43.4790039 L247.903076,41.706543 C248.171632,41.7700198 248.464598,41.8017578 248.781982,41.8017578 C249.177492,41.8017578 249.522948,41.6809094 249.818359,41.439209 C250.113771,41.1975086 250.344481,40.832522 250.510498,40.3442383 L250.642334,39.9414062 L247.390381,31.8115234 Z M259.421631,35.8911133 C259.421631,36.7016642 259.554686,37.314451 259.820801,37.7294922 C260.086915,38.1445333 260.52026,38.3520508 261.120849,38.3520508 C261.716556,38.3520508 262.145018,38.145754 262.40625,37.7331543 C262.667482,37.3205546 262.798096,36.706547 262.798096,35.8911133 C262.798096,35.0805624 262.666261,34.4726583 262.402588,34.0673828 C262.138915,33.6621073 261.70679,33.4594727 261.106201,33.4594727 C260.510495,33.4594727 260.080812,33.6608867 259.817138,34.0637207 C259.553465,34.4665547 259.421631,35.0756795 259.421631,35.8911133 Z M265.083252,35.8911133 C265.083252,37.2241278 264.731693,38.2665978 264.028564,39.0185547 C263.325436,39.7705116 262.346442,40.1464844 261.091553,40.1464844 C260.305416,40.1464844 259.612063,39.974367 259.011474,39.630127 C258.410885,39.285887 257.949464,38.7915071 257.627197,38.1469727 C257.30493,37.5024382 257.143799,36.7504926 257.143799,35.8911133 C257.143799,34.553216 257.492916,33.5131873 258.191162,32.7709961 C258.889408,32.0288049 259.870843,31.6577148 261.135498,31.6577148 C261.921635,31.6577148 262.614987,31.8286116 263.215576,32.1704102 C263.816165,32.5122087 264.277586,33.0029265 264.599853,33.6425781 C264.922121,34.2822298 265.083252,35.031734 265.083252,35.8911133 Z M273.276611,40 L272.976318,38.9526367 L272.859131,38.9526367 C272.619872,39.333498 272.28052,39.6276845 271.841064,39.8352051 C271.401609,40.0427256 270.901126,40.1464844 270.339599,40.1464844 C269.37768,40.1464844 268.65259,39.8889186 268.164306,39.3737793 C267.676023,38.85864 267.431885,38.1176806 267.431885,37.1508789 L267.431885,31.8115234 L269.665771,31.8115234 L269.665771,36.5942383 C269.665771,37.1850615 269.770751,37.6281724 269.980713,37.923584 C270.190675,38.2189956 270.525144,38.3666992 270.984131,38.3666992 C271.609134,38.3666992 272.060789,38.1579611 272.339111,37.7404785 C272.617433,37.322996 272.756592,36.6308642 272.756592,35.6640625 L272.756592,31.8115234 L274.990478,31.8115234 L274.990478,40 L273.276611,40 Z M286.880127,31.6577148 C287.846928,31.6577148 288.603757,32.0349083 289.150634,32.7893066 C289.697512,33.5437049 289.970947,34.5776302 289.970947,35.8911133 C289.970947,37.2436591 289.688967,38.2910119 289.125,39.0332031 C288.561032,39.7753943 287.793217,40.1464844 286.821533,40.1464844 C285.859614,40.1464844 285.105227,39.7973668 284.558349,39.0991211 L284.404541,39.0991211 L284.031006,40 L282.324463,40 L282.324463,28.6035156 L284.558349,28.6035156 L284.558349,31.2548828 C284.558349,31.5917986 284.529053,32.1313439 284.470459,32.8735352 L284.558349,32.8735352 C285.080813,32.0629842 285.854731,31.6577148 286.880127,31.6577148 Z M286.162353,33.4448242 C285.610593,33.4448242 285.207765,33.6145003 284.953857,33.9538574 C284.69995,34.2932146 284.568115,34.8535117 284.558349,35.6347656 L284.558349,35.8764648 C284.558349,36.7553755 284.688963,37.385252 284.950195,37.7661133 C285.211427,38.1469746 285.625241,38.3374023 286.19165,38.3374023 C286.650637,38.3374023 287.015623,38.1262228 287.286621,37.7038574 C287.557618,37.281492 287.693115,36.6674845 287.693115,35.8618164 C287.693115,35.0561483 287.556397,34.4519063 287.282959,34.0490723 C287.00952,33.6462382 286.635988,33.4448242 286.162353,33.4448242 Z M290.891357,31.8115234 L293.337646,31.8115234 L294.883056,36.418457 C295.014893,36.8188497 295.105224,37.2924777 295.154052,37.8393555 L295.197998,37.8393555 C295.251709,37.3364233 295.356688,36.8627952 295.512939,36.418457 L297.029052,31.8115234 L299.424072,31.8115234 L295.959716,41.0473633 C295.642332,41.9018597 295.189456,42.5415018 294.601074,42.9663086 C294.012692,43.3911154 293.325443,43.6035156 292.539306,43.6035156 C292.153562,43.6035156 291.775148,43.5620121 291.404052,43.4790039 L291.404052,41.706543 C291.672608,41.7700198 291.965574,41.8017578 292.282959,41.8017578 C292.678468,41.8017578 293.023924,41.6809094 293.319336,41.439209 C293.614747,41.1975086 293.845458,40.832522 294.011474,40.3442383 L294.14331,39.9414062 L290.891357,31.8115234 Z M300.82788,38.9526367 C300.82788,38.5424784 300.937743,38.2324229 301.15747,38.0224609 C301.377198,37.812499 301.697019,37.7075195 302.116943,37.7075195 C302.522218,37.7075195 302.835936,37.8149403 303.058105,38.0297852 C303.280274,38.24463 303.391357,38.5522441 303.391357,38.9526367 C303.391357,39.3383808 303.279053,39.6423329 303.054443,39.864502 C302.829832,40.086671 302.517336,40.1977539 302.116943,40.1977539 C301.706785,40.1977539 301.389405,40.0891124 301.164794,39.8718262 C300.940184,39.6545399 300.82788,39.3481465 300.82788,38.9526367 Z M300.82788,32.902832 C300.82788,32.4926737 300.937743,32.1826182 301.15747,31.9726562 C301.377198,31.7626943 301.697019,31.6577148 302.116943,31.6577148 C302.522218,31.6577148 302.835936,31.7651356 303.058105,31.9799805 C303.280274,32.1948253 303.391357,32.5024394 303.391357,32.902832 C303.391357,33.2983418 303.277833,33.6047352 303.050781,33.8220215 C302.823729,34.0393077 302.512453,34.1479492 302.116943,34.1479492 C301.706785,34.1479492 301.389405,34.0405284 301.164794,33.8256836 C300.940184,33.6108388 300.82788,33.3032247 300.82788,32.902832 Z" id="Brought-to-you-by:" fill="#9BB2D0"></path>
        </g>
    </g>
</svg>